<svg width="68" height="19" viewBox="0 0 68 19" fill="none" xmlns="http://www.w3.org/2000/svg">
<path d="M0.802188 18V1.08H5.24219V14.328H12.4902V18H0.802188ZM13.2837 9.528C13.2837 7.768 13.6277 6.24 14.3157 4.944C15.0037 3.632 15.9877 2.616 17.2677 1.896C18.5477 1.176 20.0597 0.816 21.8037 0.816C23.5637 0.816 25.0837 1.176 26.3637 1.896C27.6437 2.616 28.6277 3.632 29.3157 4.944C30.0197 6.24 30.3717 7.768 30.3717 9.528C30.3717 11.272 30.0197 12.8 29.3157 14.112C28.6277 15.424 27.6437 16.448 26.3637 17.184C25.0837 17.904 23.5637 18.264 21.8037 18.264C20.0597 18.264 18.5477 17.904 17.2677 17.184C16.0037 16.448 15.0197 15.424 14.3157 14.112C13.6277 12.8 13.2837 11.272 13.2837 9.528ZM17.9157 9.528C17.9157 11.112 18.2357 12.352 18.8757 13.248C19.5157 14.128 20.4917 14.568 21.8037 14.568C23.1157 14.568 24.0997 14.128 24.7557 13.248C25.4117 12.352 25.7397 11.112 25.7397 9.528C25.7397 7.944 25.4117 6.712 24.7557 5.832C24.0997 4.952 23.1157 4.512 21.8037 4.512C20.4917 4.512 19.5157 4.952 18.8757 5.832C18.2357 6.696 17.9157 7.928 17.9157 9.528ZM41.6688 18.264C39.7008 18.264 38.0368 17.904 36.6768 17.184C35.3328 16.464 34.3088 15.456 33.6048 14.16C32.9168 12.864 32.5728 11.352 32.5728 9.624C32.5728 7.832 32.9488 6.28 33.7008 4.968C34.4688 3.64 35.5648 2.616 36.9888 1.896C38.4128 1.176 40.1248 0.816 42.1248 0.816C43.3568 0.816 44.4448 0.96 45.3888 1.248C46.3488 1.536 47.1728 1.952 47.8608 2.496L46.4928 5.88C45.9968 5.544 45.5248 5.288 45.0768 5.112C44.6448 4.92 44.1968 4.784 43.7328 4.704C43.2848 4.624 42.7648 4.584 42.1728 4.584C40.5088 4.584 39.2608 5.016 38.4288 5.88C37.6128 6.728 37.2048 7.976 37.2048 9.624C37.2048 11.256 37.5808 12.488 38.3328 13.32C39.0848 14.152 40.2768 14.568 41.9088 14.568C42.4048 14.568 42.9408 14.52 43.5168 14.424C44.1088 14.328 44.7088 14.184 45.3168 13.992L44.5248 15.576V11.544H41.0208V8.472H48.1488V16.944C47.2368 17.376 46.2128 17.704 45.0768 17.928C43.9568 18.152 42.8208 18.264 41.6688 18.264ZM50.5728 9.528C50.5728 7.768 50.9168 6.24 51.6048 4.944C52.2928 3.632 53.2768 2.616 54.5568 1.896C55.8368 1.176 57.3488 0.816 59.0928 0.816C60.8528 0.816 62.3728 1.176 63.6528 1.896C64.9328 2.616 65.9168 3.632 66.6048 4.944C67.3088 6.24 67.6608 7.768 67.6608 9.528C67.6608 11.272 67.3088 12.8 66.6048 14.112C65.9168 15.424 64.9328 16.448 63.6528 17.184C62.3728 17.904 60.8528 18.264 59.0928 18.264C57.3488 18.264 55.8368 17.904 54.5568 17.184C53.2928 16.448 52.3088 15.424 51.6048 14.112C50.9168 12.8 50.5728 11.272 50.5728 9.528ZM55.2048 9.528C55.2048 11.112 55.5248 12.352 56.1648 13.248C56.8048 14.128 57.7808 14.568 59.0928 14.568C60.4048 14.568 61.3888 14.128 62.0448 13.248C62.7008 12.352 63.0287 11.112 63.0287 9.528C63.0287 7.944 62.7008 6.712 62.0448 5.832C61.3888 4.952 60.4048 4.512 59.0928 4.512C57.7808 4.512 56.8048 4.952 56.1648 5.832C55.5248 6.696 55.2048 7.928 55.2048 9.528Z" fill="#3626A7"/>
</svg>
